
<svg width="171px" height="37px" viewBox="0 0 171 37" version="1.1" xmlns="http://www.w3.org/2000/svg" xmlns:xlink="http://www.w3.org/1999/xlink">
    <!-- Generator: Sketch 50.2 (55047) - http://www.bohemiancoding.com/sketch -->
    <desc>Created with Sketch.</desc>
    <defs>
        <polygon id="path-1" points="19.4793575 0.176723684 0.412857485 0.176723684 0.412857485 24.0054539 19.4793575 24.0054539 19.4793575 0.176723684"></polygon>
    </defs>
    <g id="Symbols" stroke="none" stroke-width="1" fill="none" fill-rule="evenodd">
        <g id="Header-/-Desktop" transform="translate(-426.000000, -22.000000)">
            <g id="Logo">
                <g transform="translate(426.000000, 22.000000)">
                    <g>
                        <path d="M0,6.73365921 L5.14740719,6.73365921 L5.14740719,9.18101447 C6.33314371,7.73217237 7.89006287,6.41185658 10.4985808,6.41185658 C12.868518,6.41185658 14.662994,7.40988289 15.6116856,9.14888289 C17.2034192,7.37775132 19.0997784,6.41185658 21.5715988,6.41185658 C25.3991317,6.41185658 27.700976,8.60118553 27.700976,12.7558961 L27.700976,23.9941592 L22.5535689,23.9941592 L22.5535689,14.3653961 C22.5535689,12.0470539 21.4697156,10.8557513 19.5395659,10.8557513 C17.6099281,10.8557513 16.4241916,12.0470539 16.4241916,14.3653961 L16.4241916,23.9941592 L11.2767844,23.9941592 L11.2767844,14.3653961 C11.2767844,12.0470539 10.1929311,10.8557513 8.26278144,10.8557513 C6.33314371,10.8557513 5.14740719,12.0470539 5.14740719,14.3653961 L5.14740719,23.9941592 L0,23.9941592 L0,6.73365921 L0,6.73365921 Z" id="Fill-1" fill="#FFFFFF"></path>
                        <path d="M44.1266524,15.4606934 L44.1266524,15.3959434 C44.1266524,12.8526803 42.1965027,10.6297592 39.3519638,10.6297592 C36.4055416,10.6297592 34.644344,12.7879303 34.644344,15.3316803 L34.644344,15.3959434 C34.644344,17.9401803 36.5744937,20.1616408 39.4190326,20.1616408 C42.3654548,20.1616408 44.1266524,18.0049303 44.1266524,15.4606934 M29.5645177,15.4606934 L29.5645177,15.3959434 C29.5645177,10.4369697 33.7642572,6.41224605 39.4190326,6.41224605 C45.0410416,6.41224605 49.2069907,10.3722197 49.2069907,15.3316803 L49.2069907,15.3959434 C49.2069907,20.3554039 45.0067392,24.3806145 39.3519638,24.3806145 C33.7299548,24.3806145 29.5645177,20.4191803 29.5645177,15.4606934" id="Fill-3" fill="#FFFFFF"></path>
                        <g id="Group-7" transform="translate(50.685629, 0.310313)">
                            <mask id="mask-2" fill="white">
                                <use xlink:href="#path-1"></use>
                            </mask>
                            <g id="Clip-6"></g>
                            <path d="M14.3990192,15.0855329 L14.3990192,15.0217566 C14.3990192,12.1547434 12.4018006,10.2555724 9.9970491,10.2555724 C7.5922976,10.2555724 5.56077665,12.1230987 5.56077665,15.0217566 L5.56077665,15.0855329 C5.56077665,17.9520592 7.5922976,19.8517171 9.9970491,19.8517171 C12.4018006,19.8517171 14.3990192,17.9520592 14.3990192,15.0855329 M0.412857485,15.0855329 L0.412857485,15.0217566 C0.412857485,9.25705921 4.37504012,6.10183553 8.6761509,6.10183553 C11.4188066,6.10183553 13.1124234,7.29313816 14.3319503,8.67771711 L14.3319503,0.176480263 L19.4793575,0.176480263 L19.4793575,23.6836513 L14.3319503,23.6836513 L14.3319503,21.2041645 C13.078121,22.8141513 11.3517377,24.0054539 8.6761509,24.0054539 C4.44313293,24.0054539 0.412857485,20.8497434 0.412857485,15.0855329" id="Fill-5" fill="#FFFFFF" mask="url(#mask-2)"></path>
                        </g>
                        <path d="M91.9802344,6.73365921 L97.1276416,6.73365921 L97.1276416,10.2116592 C98.1777045,7.82808026 99.8702973,6.28235658 102.918603,6.41185658 L102.918603,11.5314882 L102.647767,11.5314882 C99.2277674,11.5314882 97.1276416,13.4958961 97.1276416,17.6175013 L97.1276416,23.9941592 L91.9802344,23.9941592 L91.9802344,6.73365921 Z" id="Fill-8" fill="#FFFFFF"></path>
                        <path d="M105.035982,6.73365921 L110.183389,6.73365921 L110.183389,9.18101447 C111.369126,7.73217237 112.892766,6.41185658 115.499749,6.41185658 C119.394862,6.41185658 121.66394,8.858725 121.66394,12.8196724 L121.66394,23.9941592 L116.516533,23.9941592 L116.516533,14.3653961 C116.516533,12.0470539 115.364587,10.8557513 113.400647,10.8557513 C111.436195,10.8557513 110.183389,12.0470539 110.183389,14.3653961 L110.183389,23.9941592 L105.035982,23.9941592 L105.035982,6.73365921 Z" id="Fill-10" fill="#FFFFFF"></path>
                        <polygon id="Fill-12" fill="#FFFFFF" points="124.014934 4.83356316 129.433177 4.83356316 129.433177 0.487036842 124.014934 0.487036842"></polygon>
                        <polygon id="Fill-14" fill="#FFFFFF" points="124.150608 23.9942079 129.298015 23.9942079 129.298015 6.73370789 124.150608 6.73370789"></polygon>
                        <path d="M81.0893263,10.3402829 C83.126479,10.3402829 84.4453293,11.6498882 84.8492784,13.6245197 L77.2438743,13.6245197 C77.7353713,11.6231118 79.0818683,10.3402829 81.0893263,10.3402829 M89.9275689,15.7822039 C89.9275689,10.8874934 87.1511228,6.41195395 81.0893263,6.41195395 C75.8062455,6.41195395 72.1143862,10.4692961 72.1143862,15.3956513 L72.1143862,15.4608882 C72.1143862,20.7416645 76.1446617,24.3803224 81.5966946,24.3803224 C84.8820449,24.3803224 87.3205868,23.157375 89.0131796,21.1603487 L86.0677814,18.6808618 C84.645,19.9359408 83.3921946,20.4515066 81.6647874,20.4515066 C79.3619192,20.4515066 77.7363952,19.2928224 77.228515,17.0703882 L89.8605,17.0703882 C89.8942904,16.6200592 89.9275689,16.1687566 89.9275689,15.7822039" id="Fill-15" fill="#FFFFFF"></path>
                        <polygon id="Fill-16" fill="#FFFFFF" points="147.280457 10.1794789 147.280457 6.73361053 131.804445 6.73361053 131.804445 10.6945579 140.880244 10.6945579 131.499819 20.5482421 131.499819 23.9941105 134.068403 23.9941105"></polygon>
                        <path d="M157.308993,20.4514092 C157.247555,20.4514092 157.188166,20.4470276 157.127753,20.4455671 L160.463789,23.9235671 C162.184028,23.3968039 163.574043,22.4382118 164.657385,21.1602513 L161.711987,18.6807645 C160.289205,19.9363303 159.0364,20.4514092 157.308993,20.4514092" id="Fill-17" fill="#FFFFFF"></path>
                        <path d="M152.888284,13.6246171 C153.379269,11.6232092 154.726278,10.3403803 156.733736,10.3403803 C158.770889,10.3403803 160.089227,11.6494987 160.493176,13.6246171 L152.888284,13.6246171 Z M156.733736,6.41205132 C152.927706,6.41205132 149.956709,8.52299868 148.587685,11.5423934 L153.890221,17.0704855 L165.50491,17.0704855 C165.538188,16.6201566 165.571979,16.1688539 165.571979,15.7823013 C165.571979,10.8875908 162.795533,6.41205132 156.733736,6.41205132 L156.733736,6.41205132 Z" id="Fill-18" fill="#FFFFFF"></path>
                        <polygon id="Fill-19" fill="#FEC14B" points="142.335997 23.9995632 147.280662 23.9995632 147.280662 20.0327737 142.335997 20.0327737"></polygon>
                        <polygon id="Fill-20" fill="#FFFFFF" points="0 36.7454789 0 31.2889526 1.31475449 31.2889526 1.31475449 33.5055447 3.58639222 33.5055447 3.58639222 31.2889526 4.90114671 31.2889526 4.90114671 36.7454789 3.58639222 36.7454789 3.58639222 34.4792289 1.31475449 34.4792289 1.31475449 36.7454789"></polygon>
                        <path d="M9.76732545,35.8642947 C10.7907656,35.8642947 11.2689512,35.0332553 11.2689512,34.0172158 C11.2689512,33.0011763 10.7759183,32.1701368 9.75964581,32.1701368 C8.73620569,32.1701368 8.25802006,33.0011763 8.25802006,34.0172158 C8.25802006,35.0332553 8.75105299,35.8642947 9.76732545,35.8642947 M9.76732545,31.2110579 C11.6129991,31.2110579 12.599065,32.4184263 12.599065,34.0172158 C12.599065,35.6014 11.6201668,36.8233737 9.75964581,36.8233737 C7.91448413,36.8233737 6.92790629,35.6160053 6.92790629,34.0172158 C6.92790629,32.4330316 7.90680449,31.2110579 9.76732545,31.2110579" id="Fill-21" fill="#FFFFFF"></path>
                        <polygon id="Fill-22" fill="#FFFFFF" points="20.7973374 31.28905 20.7973374 36.7455763 19.4974302 36.7455763 19.4974302 33.1434316 19.4825829 33.1434316 18.2492326 36.7455763 17.1438763 36.7455763 15.911038 33.15755 15.8961907 33.15755 15.8961907 36.7455763 14.6259781 36.7455763 14.6259781 31.28905 16.3963913 31.28905 17.7193374 35.2183526 17.7341847 35.2183526 19.0489392 31.28905"></polygon>
                        <polygon id="Fill-23" fill="#FFFFFF" points="23.0484961 36.7454789 23.0484961 31.2889526 27.0608524 31.2889526 27.0608524 32.2553342 24.3560829 32.2553342 24.3560829 33.5128474 26.7019572 33.5128474 26.7019572 34.4719263 24.3560829 34.4719263 24.3560829 35.7790974 27.113074 35.7790974 27.113074 36.7454789"></polygon>
                        <polygon id="Fill-24" fill="#FFFFFF" points="32.5621886 36.7454789 32.5621886 31.2889526 36.1112066 31.2889526 36.1112066 31.6794 33.0255269 31.6794 33.0255269 33.7971632 35.7451437 33.7971632 35.7451437 34.1876105 33.0255269 34.1876105 33.0255269 36.3550316 36.1634281 36.3550316 36.1634281 36.7454789"></polygon>
                        <polygon id="Fill-25" fill="#FFFFFF" points="43.9877533 31.28905 43.9877533 36.7455763 43.524415 36.7455763 43.524415 31.9000368 43.5095677 31.9000368 41.4099539 36.7455763 40.9768222 36.7455763 38.8772084 31.9141553 38.8623611 31.9141553 38.8623611 36.7455763 38.4067024 36.7455763 38.4067024 31.28905 39.0866066 31.28905 41.193388 36.1487079 41.2082353 36.1487079 43.3078491 31.28905"></polygon>
                        <path d="M48.8837802,33.9674605 C49.3768132,33.9674605 49.7879299,33.7045658 49.7879299,33.115 C49.7879299,32.5254342 49.3768132,32.2552368 48.8837802,32.2552368 L47.7185228,32.2552368 L47.7185228,33.9674605 L48.8837802,33.9674605 Z M49.0107503,31.2888553 C50.1688401,31.2888553 51.1180437,31.9358684 51.1180437,33.0935789 C51.1180437,34.2590789 50.1913671,34.9338421 48.9882234,34.9338421 L47.7185228,34.9338421 L47.7185228,36.7453816 L46.4032563,36.7453816 L46.4032563,31.2888553 L49.0107503,31.2888553 Z" id="Fill-26" fill="#FFFFFF"></path>
                        <path d="M55.6474446,35.8642947 C56.6708847,35.8642947 57.1490704,35.0332553 57.1490704,34.0172158 C57.1490704,33.0011763 56.6560374,32.1701368 55.639765,32.1701368 C54.6163249,32.1701368 54.1381392,33.0011763 54.1381392,34.0172158 C54.1381392,35.0332553 54.6311722,35.8642947 55.6474446,35.8642947 M55.6474446,31.2110579 C57.4931183,31.2110579 58.4791841,32.4184263 58.4791841,34.0172158 C58.4791841,35.6014 57.5002859,36.8233737 55.639765,36.8233737 C53.7946033,36.8233737 52.8080254,35.6160053 52.8080254,34.0172158 C52.8080254,32.4330316 53.7869237,31.2110579 55.6474446,31.2110579" id="Fill-27" fill="#FFFFFF"></path>
                        <polygon id="Fill-28" fill="#FFFFFF" points="68.007212 31.28905 66.3934635 36.7455763 64.9809216 36.7455763 63.987688 33.0299974 63.9723287 33.0299974 62.9714156 36.7455763 61.529691 36.7455763 59.9154305 31.28905 61.2905982 31.28905 62.321718 35.2037474 62.3365653 35.2037474 63.2924246 31.28905 64.7049665 31.28905 65.6613377 35.1613921 65.676185 35.1613921 66.6847778 31.28905"></polygon>
                        <polygon id="Fill-29" fill="#FFFFFF" points="69.8029168 36.7454789 69.8029168 31.2889526 73.8152731 31.2889526 73.8152731 32.2553342 71.1105036 32.2553342 71.1105036 33.5128474 73.4563778 33.5128474 73.4563778 34.4719263 71.1105036 34.4719263 71.1105036 35.7790974 73.8674946 35.7790974 73.8674946 36.7454789"></polygon>
                        <path d="M77.164006,33.676475 L78.3891647,33.676475 C78.8002814,33.676475 79.1438174,33.4486329 79.1438174,32.9656855 C79.1438174,32.4754355 78.8002814,32.2553829 78.3891647,32.2553829 L77.164006,32.2553829 L77.164006,33.676475 Z M78.1874461,34.6282513 L77.164006,34.6282513 L77.164006,36.7455276 L75.8487395,36.7455276 L75.8487395,31.2890013 L78.5386617,31.2890013 C79.6593772,31.2890013 80.4662515,31.8644487 80.4662515,32.8804882 C80.4662515,33.5980934 80.0474551,34.1024618 79.4202844,34.3439355 L80.6305958,36.7455276 L79.1883593,36.7455276 L78.1874461,34.6282513 Z" id="Fill-30" fill="#FFFFFF"></path>
                        <polygon id="Fill-31" fill="#FFFFFF" points="88.2234566 31.28905 88.2234566 36.7455763 87.7606302 36.7455763 87.7606302 31.9000368 87.745271 31.9000368 85.6456572 36.7455763 85.2125254 36.7455763 83.1129117 31.9141553 83.0980644 31.9141553 83.0980644 36.7455763 82.6424057 36.7455763 82.6424057 31.28905 83.3223099 31.28905 85.4296033 36.1487079 85.4439386 36.1487079 87.5435524 31.28905"></polygon>
                        <polygon id="Fill-32" fill="#FFFFFF" points="90.8035599 36.7454789 90.8035599 31.2889526 94.3525778 31.2889526 94.3525778 31.6794 91.2663862 31.6794 91.2663862 33.7971632 93.986003 33.7971632 93.986003 34.1876105 91.2663862 34.1876105 91.2663862 36.3550316 94.4047994 36.3550316 94.4047994 36.7454789"></polygon>
                        <polygon id="Fill-33" fill="#FFFFFF" points="101.123051 31.28905 101.123051 36.7455763 100.712447 36.7455763 97.1183749 32.0066553 97.1035275 32.0066553 97.1035275 36.7455763 96.6478689 36.7455763 96.6478689 31.28905 97.1260545 31.28905 100.652546 35.9500763 100.667393 35.9500763 100.667393 31.28905"></polygon>
                        <polygon id="Fill-34" fill="#FFFFFF" points="105.234373 36.7454789 105.234373 31.6794 103.127591 31.6794 103.127591 31.2889526 107.805004 31.2889526 107.805004 31.6794 105.697711 31.6794 105.697711 36.7454789"></polygon>
                        <path d="M109.024071,32.1191158 C109.043526,32.1824053 109.060933,32.2101553 109.098307,32.2374184 C109.152577,32.2802605 109.240125,32.3026553 109.340984,32.3026553 C109.498672,32.3026553 109.597996,32.2354711 109.597996,32.1288526 C109.597996,32.0543658 109.545774,32.0066553 109.436723,31.9789053 L109.187391,31.9175632 C109.055301,31.8844579 108.989256,31.8508658 108.942666,31.7919579 C108.891469,31.7306158 108.866382,31.65905 108.866382,31.5792079 C108.866382,31.3586684 109.049669,31.2111553 109.325625,31.2111553 C109.465394,31.2111553 109.589804,31.2481553 109.683496,31.3182605 C109.739813,31.3625632 109.768996,31.4015105 109.792547,31.4774579 L109.570349,31.5290632 C109.535535,31.4351026 109.458226,31.3903132 109.327672,31.3903132 C109.193023,31.3903132 109.105475,31.4497079 109.105475,31.5417211 C109.105475,31.6142605 109.16384,31.6624579 109.286714,31.6921553 L109.5084,31.7437605 C109.648681,31.7788132 109.732134,31.8236026 109.782307,31.8956553 C109.823777,31.9526158 109.84528,32.0193132 109.84528,32.0952605 C109.84528,32.3304053 109.64049,32.4818132 109.327672,32.4818132 C109.165888,32.4818132 109.032262,32.4428658 108.928331,32.3654579 C108.864334,32.3153132 108.831568,32.2656553 108.798801,32.1658526 L109.024071,32.1191158 Z" id="Fill-35" fill="#FFFFFF"></path>
                        <polygon id="Fill-36" fill="#FFFFFF" points="111.080013 32.4633132 111.080013 31.3830105 110.720094 32.4633132 110.597731 32.4633132 110.2373 31.3830105 110.2373 32.4633132 110.046845 32.4633132 110.046845 31.2296553 110.412396 31.2296553 110.683231 32.0251553 110.951507 31.2296553 111.319106 31.2296553 111.319106 32.4633132"></polygon>
                        <path d="M167.034438,7.44133289 C166.945866,7.23004342 166.838351,7.16334605 166.60489,7.16334605 C166.390372,7.16334605 166.26801,7.24075395 166.26801,7.37074079 C166.26801,7.50851711 166.357094,7.56839868 166.623322,7.61756974 C166.993992,7.69156974 167.146049,7.73684605 167.271483,7.81814868 C167.478834,7.95203026 167.589932,8.14920132 167.589932,8.37460921 C167.589932,8.62095132 167.449651,8.86388553 167.227453,9.001175 C167.067717,9.10000395 166.834768,9.15258289 166.575708,9.15258289 C166.286441,9.15258289 166.053492,9.08588553 165.868157,8.95200395 C165.712516,8.83564868 165.642375,8.73000395 165.572235,8.50118816 L166.105202,8.38483289 C166.175343,8.61024079 166.330983,8.71247763 166.60489,8.71247763 C166.849615,8.71247763 167.001672,8.61754342 167.001672,8.46613553 C167.001672,8.32495132 166.901325,8.26214868 166.572124,8.19837237 C166.298217,8.14579342 166.13848,8.09613553 166.001271,8.01531974 C165.808768,7.90626711 165.701253,7.71250395 165.701253,7.48028026 C165.701253,7.26168816 165.786753,7.07863553 165.953657,6.93793816 C166.120049,6.79724079 166.323304,6.73346447 166.601307,6.73346447 C166.868046,6.73346447 167.083076,6.79334605 167.249468,6.91310921 C167.378998,7.00512237 167.446067,7.09664868 167.523375,7.28651711 L167.034438,7.44133289 Z" id="Fill-37" fill="#FFFFFF"></path>
                        <polygon id="Fill-38" fill="#FFFFFF" points="168.454865 7.20195263 168.454865 9.11767632 167.970023 9.11767632 167.970023 6.76866316 168.870077 6.76866316 169.302697 8.17368947 169.762451 6.76866316 170.662505 6.76866316 170.662505 9.11767632 170.080901 9.11767632 170.080901 7.20195263 169.45885 9.11767632 169.06258 9.11767632"></polygon>
                    </g>
                </g>
            </g>
        </g>
    </g>
</svg>
